<svg width="40" height="40" viewBox="0 0 40 40" fill="none" xmlns="http://www.w3.org/2000/svg">
<path d="M0.0183241 19.9853C0.0183241 14.9434 0.0183241 9.90148 0.0183241 4.85957C0.026277 3.5763 0.538352 2.34759 1.44408 1.43848C2.34982 0.529371 3.57661 0.0127281 4.85984 0H35.053C37.4592 0 39.5433 1.8633 39.8793 4.2306C39.9681 4.91603 40.008 5.60691 39.9987 6.298C39.9987 15.7117 39.9987 25.1249 39.9987 34.5376C39.9987 36.8216 39.0726 38.5933 36.8622 39.536C36.1808 39.8229 35.448 39.968 34.7087 39.9623C24.8757 39.9734 15.0432 39.9734 5.21111 39.9623C4.52512 39.9701 3.84448 39.8408 3.20911 39.5821C2.57374 39.3233 1.99644 38.9403 1.51108 38.4554C1.02572 37.9706 0.642066 37.3937 0.382631 36.7586C0.123195 36.1235 -0.00679567 35.443 0.000273595 34.757C0.0835805 29.8391 0.0183241 24.9115 0.0183241 19.9853Z" fill="#191B1C"/>
<path d="M28.4518 13.7499C28.3518 14.5414 28.2157 15.2508 27.8575 15.8715C27.5789 16.3727 27.4318 16.9364 27.4299 17.5099C27.2369 22.3819 23.9949 26.164 19.1853 26.8513C16.743 27.1998 14.2771 26.961 12.0528 25.6489C11.8914 25.5651 11.7567 25.4376 11.6641 25.281C13.115 25.0214 14.5798 24.8645 15.8072 23.9384C12.947 22.0445 11.6418 19.4953 12.5305 15.4938C12.6693 14.8885 12.9026 14.3053 13.0775 13.7083C13.2163 13.2432 13.383 13.3029 13.6579 13.618C14.4234 14.5169 15.3158 15.2994 16.307 15.9409C17.0452 16.4116 17.8531 16.7631 18.7007 16.9822C19.0534 17.0725 19.1561 17.0433 19.2297 16.6532C19.867 13.2543 23.2881 11.9672 26.0331 14.0734C26.6482 14.5455 27.2536 14.2387 27.8534 14.029C28.0172 13.9693 28.1741 13.8763 28.4518 13.7499ZM17.2345 25.188C18.3841 25.3268 19.5116 25.1769 20.7487 24.684C24.5419 23.1747 25.7471 19.7244 25.6999 16.5518C25.6801 16.3451 25.6079 16.1467 25.4902 15.9756C25.2032 15.5265 24.7848 15.1767 24.2919 14.974C23.7989 14.7712 23.2555 14.7254 22.7355 14.8426C21.7636 15.0704 21.0291 15.9534 20.9431 17.0531C20.9097 17.4696 20.9306 17.8861 20.9222 18.3027C20.9125 18.7567 20.6945 18.9969 20.228 18.9344C19.2006 18.8053 18.1717 18.6817 17.1929 18.3096C16.0918 17.8931 15.1102 17.2572 14.1258 16.5171C13.7509 18.6512 14.3035 20.3812 15.8863 21.7654C16.5153 22.3208 17.2415 22.7249 17.9412 23.1706C18.884 23.7718 18.8909 23.9425 17.9759 24.6326L17.2345 25.188Z" fill="#F9F9FA"/>
</svg>
