<svg width="40" height="41" viewBox="0 0 40 41" fill="none" xmlns="http://www.w3.org/2000/svg">
<path d="M20.0167 0.0283968H35.0788C35.7264 0.0280178 36.3677 0.155755 36.9658 0.404253C37.5638 0.652752 38.1068 1.0171 38.5634 1.47632C39.0201 1.93554 39.3813 2.48056 39.6265 3.07999C39.8716 3.67942 39.9957 4.32142 39.9917 4.96902C39.9917 14.9373 39.9944 24.906 40 34.8753C40 37.3477 38.1943 39.977 34.9997 39.9937C24.999 40.0465 15.0108 40.0256 5.01563 40.0048C3.69338 39.9921 2.42887 39.4612 1.49386 38.5262C0.558842 37.5912 0.0279501 36.3267 0.0152788 35.0044C-0.00509295 25.0121 -0.00509295 15.0202 0.0152788 5.02874C0.0222238 2.1716 2.45295 -0.0424411 5.1073 0.000617476C10.0674 0.0867346 15.0427 0.0283968 20.0167 0.0283968Z" fill="#191B1C"/>
<path d="M24.4063 17.9164C24.1493 18.9526 23.8965 19.911 23.6798 20.8778C23.6076 21.2069 23.4354 21.2597 23.1451 21.2583C22.6187 21.2583 21.895 21.0806 21.6172 21.3528C21.2477 21.7098 21.5075 22.4418 21.5005 23.0112C21.4825 24.6058 21.4797 26.2059 21.5005 27.7977C21.5005 28.2144 21.4172 28.3658 20.9727 28.3436C20.1862 28.3004 19.3979 28.3004 18.6114 28.3436C18.1114 28.3741 18.0558 28.163 18.0558 27.7477C18.0725 25.7823 18.0475 23.8169 18.0753 21.8514C18.0753 21.375 17.9725 21.1944 17.4752 21.2403C16.978 21.2861 16.503 21.2278 16.0182 21.2583C15.6446 21.2806 15.5459 21.1403 15.5557 20.7847C15.5793 19.9763 15.5848 19.1651 15.5557 18.3567C15.5404 17.9623 15.7043 17.8692 16.0432 17.9137C16.0894 17.9185 16.1359 17.9185 16.1821 17.9137C16.8002 17.8734 17.6253 18.1762 17.9781 17.7859C18.2795 17.4511 18.0447 16.64 18.0683 16.0399C18.0673 15.5322 18.105 15.0252 18.1808 14.5231C18.5059 12.8355 19.8907 11.6966 21.6186 11.6702C22.3589 11.6591 23.0992 11.6938 23.841 11.6896C24.284 11.6896 24.4466 11.8632 24.416 12.3188C24.3825 12.9203 24.3825 13.5231 24.416 14.1245C24.4327 14.4829 24.3313 14.6107 23.9576 14.5982C23.4507 14.5606 22.941 14.5877 22.4409 14.6787C21.8853 14.8051 21.57 15.1149 21.5339 15.6593C21.4894 16.3038 21.5144 16.9525 21.4894 17.6039C21.4741 17.9859 21.7339 17.9192 21.9547 17.9206C22.7312 17.9178 23.5201 17.9164 24.4063 17.9164Z" fill="#F9F9FA"/>
</svg>
