<svg width="40" height="40" viewBox="0 0 40 40" fill="none" xmlns="http://www.w3.org/2000/svg">
<path d="M0.0183241 19.9853C0.0183241 14.9434 0.0183241 9.90148 0.0183241 4.85957C0.026277 3.5763 0.538352 2.34759 1.44408 1.43848C2.34982 0.529371 3.57661 0.0127281 4.85984 0H35.053C37.4592 0 39.5433 1.8633 39.8793 4.2306C39.9681 4.91603 40.008 5.60691 39.9987 6.298C39.9987 15.7117 39.9987 25.1249 39.9987 34.5376C39.9987 36.8216 39.0726 38.5933 36.8622 39.536C36.1808 39.8229 35.448 39.968 34.7087 39.9623C24.8757 39.9734 15.0432 39.9734 5.21111 39.9623C4.52512 39.9701 3.84448 39.8408 3.20911 39.5821C2.57374 39.3233 1.99644 38.9403 1.51108 38.4554C1.02572 37.9706 0.642066 37.3937 0.382631 36.7586C0.123195 36.1235 -0.00679567 35.443 0.000273595 34.757C0.0835805 29.8391 0.0183241 24.9115 0.0183241 19.9853Z" fill="#191B1C"/>
<path d="M19.4289 28.3747C18.4653 28.3164 17.0102 28.4886 15.5579 28.2622C13.4489 27.9318 11.916 26.4573 11.7203 24.3163C11.4578 21.4853 11.4578 18.6361 11.7203 15.8051C11.9382 13.4725 13.5738 11.9244 16.173 11.7925C18.8888 11.6536 21.6254 11.5551 24.3412 11.8786C26.4656 12.1313 27.9887 13.6711 28.1845 15.8051C28.4483 18.636 28.4483 21.4853 28.1845 24.3163C27.954 26.7461 26.1018 28.2872 23.4637 28.3692C22.2752 28.4053 21.0964 28.3747 19.4289 28.3747ZM13.3475 20.0301C13.3697 21.438 13.2462 22.8529 13.4753 24.2524C13.6905 25.5659 14.6291 26.4739 15.9453 26.5795C18.6167 26.8009 21.3019 26.8009 23.9733 26.5795C25.2368 26.4753 26.1865 25.5687 26.4225 24.3079C26.5353 23.6468 26.5818 22.9761 26.5614 22.3058C26.535 20.2037 26.7002 18.096 26.4392 16.0036C26.242 14.4763 25.2784 13.6433 23.7553 13.5183C21.563 13.3337 19.3692 13.3698 17.1755 13.442C14.2694 13.5364 13.4267 14.4139 13.3531 17.3296C13.3295 18.2252 13.3475 19.129 13.3475 20.0301Z" fill="#F9F9FA"/>
<path d="M19.9316 24.2245C19.3828 24.2302 18.8383 24.1271 18.3296 23.9211C17.8209 23.7151 17.358 23.4104 16.9678 23.0245C16.5775 22.6386 16.2676 22.1792 16.0559 21.6729C15.8441 21.1665 15.7349 20.6232 15.7344 20.0744C15.7274 17.7335 17.5921 15.8924 19.9677 15.8938C20.5163 15.8888 21.0603 15.9925 21.5686 16.1989C22.0768 16.4053 22.5392 16.7102 22.929 17.0961C23.3188 17.4821 23.6283 17.9414 23.8398 18.4475C24.0512 18.9537 24.1603 19.4967 24.1608 20.0452C24.172 22.3903 22.3073 24.2273 19.9316 24.2245ZM17.5019 20.0008C17.4831 20.657 17.7248 21.294 18.174 21.7726C18.6233 22.2513 19.2436 22.5327 19.8997 22.5556C21.2284 22.6055 22.3836 21.4837 22.4086 20.1188C22.4274 19.4638 22.1867 18.8279 21.7389 18.3494C21.2912 17.871 20.6726 17.5887 20.0177 17.5641C18.682 17.5141 17.5268 18.6415 17.5019 20.0008Z" fill="#F9F9FA"/>
<path d="M25.4121 15.712C25.4162 15.9306 25.3544 16.1455 25.2347 16.3285C25.1149 16.5115 24.9429 16.6542 24.7408 16.738C24.5388 16.8218 24.3163 16.8428 24.1021 16.7983C23.888 16.7538 23.6923 16.6458 23.5404 16.4884C23.3885 16.331 23.2876 16.1315 23.2508 15.9159C23.2139 15.7003 23.2429 15.4787 23.3339 15.2798C23.4248 15.0809 23.5736 14.914 23.7608 14.8009C23.948 14.6878 24.1649 14.6337 24.3833 14.6456C24.6591 14.6567 24.92 14.7738 25.1116 14.9724C25.3033 15.171 25.4109 15.436 25.4121 15.712Z" fill="#F9F9FA"/>
</svg>
