<svg width="35" height="35" viewBox="0 0 35 35" fill="none" xmlns="http://www.w3.org/2000/svg">
<path d="M0 5C0 2.23858 2.23858 0 5 0H30C32.7614 0 35 2.23858 35 5V30C35 32.7614 32.7614 35 30 35H5C2.23858 35 0 32.7614 0 30V5Z" fill="black"/>
<path fill-rule="evenodd" clip-rule="evenodd" d="M17.4825 26.9972C19.883 26.9972 22.2888 27.0035 24.6854 26.9972C25.5674 26.9972 25.9909 26.6402 25.9922 25.8738C26.0026 22.3787 26.0026 18.8865 25.9922 15.3972C25.9922 14.642 25.6259 14.3125 24.8231 14.2963C24.132 14.2825 23.4384 14.2713 22.7447 14.2963C22.3459 14.3137 22.2251 14.1977 22.2342 13.8107C22.2498 13.0243 22.2927 12.2354 22.1043 11.4528C21.6276 9.45556 19.6635 7.98636 17.4409 8.0001C15.2677 8.01258 13.3426 9.498 12.8827 11.4952C12.7008 12.2791 12.7528 13.0655 12.7606 13.8519C12.7606 14.2114 12.645 14.315 12.2813 14.3C11.6772 14.2726 11.0706 14.2913 10.4627 14.2925C9.27799 14.2925 9 14.5572 9 15.6743V25.5905C9 26.6827 9.32605 26.9972 10.4653 26.9985C12.8078 26.9976 15.1469 26.9972 17.4825 26.9972ZM11.7097 25.0999C13.6348 25.0699 15.5612 25.0874 17.4864 25.0874C19.4777 25.0874 21.4678 25.0774 23.4514 25.0961C23.8489 25.1049 23.9891 24.9925 23.9645 24.6056C23.9333 24.13 23.9567 23.6507 23.9567 23.1726C23.9567 21.0306 23.9489 18.8886 23.9645 16.7478C23.9671 16.3634 23.8839 16.2023 23.4358 16.2023C22.255 16.2023 22.2251 16.1811 22.255 17.347C22.2693 17.8975 22.0445 17.9986 21.5353 17.9898C20.2363 17.9649 20.213 17.9898 20.2363 16.7416C20.2454 16.2847 20.0883 16.1936 19.6518 16.2023C18.3749 16.2286 17.098 16.2123 15.8223 16.2123C14.7689 16.2123 14.7741 16.2123 14.7598 17.2259C14.7559 17.4656 14.8728 17.8313 14.613 17.9112C14.0716 18.0658 13.4959 18.071 12.9516 17.9262C12.5541 17.8188 12.7775 17.3433 12.7645 17.0374C12.7216 16.1075 12.8996 16.2261 11.8929 16.2123C11.828 16.2167 11.7629 16.2167 11.698 16.2123C11.1511 16.1225 11.0212 16.3484 11.0212 16.8614C11.0511 19.4029 11.0563 21.9393 11.0212 24.4758C11.0135 25.0163 11.1901 25.1074 11.7097 25.0999ZM15.23 14.2975C15.986 14.2738 16.7433 14.2913 17.4994 14.2913C17.7799 14.2913 18.0618 14.295 18.3385 14.2863C18.9399 14.2751 19.7648 14.4823 20.087 14.1864C20.5 13.8095 20.2233 13.0106 20.2169 12.3964C20.2052 11.0196 18.9958 9.90368 17.5331 9.87122C16.8332 9.86682 16.1579 10.1192 15.6449 10.5768C15.132 11.0345 14.82 11.663 14.7728 12.334C14.7455 12.8333 14.787 13.3326 14.7598 13.8319C14.7403 14.1827 14.8546 14.31 15.23 14.2975Z" fill="white"/>
</svg>
